<svg width="130" height="130" viewBox="0 0 130 130" fill="none" xmlns="http://www.w3.org/2000/svg" shape-rendering="crispEdges">
<path d="M70 40H110V50H70V40Z" fill="black"/>
<path d="M30 60H100V70H30V60Z" fill="black"/>
<path d="M40 70H90V80H40V70Z" fill="black"/>
<path d="M50 80H80V90H50V80Z" fill="black"/>
<path d="M60 90H70V100H60V90Z" fill="black"/>
<path d="M20 40H30V50H20V40Z" fill="black"/>
<path d="M30 30H40V40H30V30Z" fill="black"/>
<path d="M40 30H50V40H40V30Z" fill="black"/>
<path d="M40 40H50V50H40V40Z" fill="black"/>
<path d="M50 40H60V50H50V40Z" fill="black"/>
<path d="M20 50H110V60H20V50Z" fill="black"/>
<path d="M80 30H100V40H80V30Z" fill="black"/>
<path d="M20 30H30V40H20V30Z" fill="black"/>
<path d="M10 40H20V50H10V40Z" fill="black"/>
<path d="M10 50H20V60H10V50Z" fill="black"/>
<path d="M110 40H120V50H110V40Z" fill="black"/>
<path d="M100 60H110V70H100V60Z" fill="black"/>
<path d="M90 70H100V80H90V70Z" fill="black"/>
<path d="M80 80H90V90H80V80Z" fill="black"/>
<path d="M70 90H80V100H70V90Z" fill="black"/>
<path d="M60 100H70V110H60V100Z" fill="black"/>
<path d="M50 90H60V100H50V90Z" fill="black"/>
<path d="M40 80H50V90H40V80Z" fill="black"/>
<path d="M30 70H40V80H30V70Z" fill="black"/>
<path d="M20 60H30V70H20V60Z" fill="black"/>
<path d="M110 50H120V60H110V50Z" fill="black"/>
<path d="M30 20H50V30H30V20Z" fill="black"/>
<path d="M50 30H60V40H50V30Z" fill="black"/>
<path d="M60 40H70V50H60V40Z" fill="black"/>
<path d="M70 30H80V40H70V30Z" fill="black"/>
<path d="M30 40H40V50H30V40Z" fill="black"/>
<path d="M100 30H110V40H100V30Z" fill="black"/>
<path d="M80 20H100V30H80V20Z" fill="black"/>
</svg>
